<?xml version="1.0" encoding="UTF-8" standalone="no"?>
<!-- Created with Inkscape (http://www.inkscape.org/) -->

<svg
   xmlns:dc="http://purl.org/dc/elements/1.1/"
   xmlns:cc="http://creativecommons.org/ns#"
   xmlns:rdf="http://www.w3.org/1999/02/22-rdf-syntax-ns#"
   xmlns:svg="http://www.w3.org/2000/svg"
   xmlns="http://www.w3.org/2000/svg"
   version="1.1"
   width="354.32501"
   height="354.32501"
   id="svg2"
   xml:space="preserve"><metadata
     id="metadata8"><rdf:RDF><cc:Work
         rdf:about=""><dc:format>image/svg+xml</dc:format><dc:type
           rdf:resource="http://purl.org/dc/dcmitype/StillImage" /><dc:title></dc:title></cc:Work></rdf:RDF></metadata><defs
     id="defs6" /><g
     transform="matrix(1.25,0,0,-1.25,0,354.325)"
     id="g10"><path
       d="m 0,0 283.465,0 0,283.465 L 0,283.465 0,0 z"
       id="path14"
       style="fill:#000000;fill-opacity:1;fill-rule:nonzero;stroke:none" /><path
       d="m 19.1273,128.18 37.625,0 0,-18.75 -15,0 0,-17.7495 14.125,0 0,-17.875 -14.125,0 0,-20.75 16.5,0 0,-18.75 -39.125,0 0,93.8745"
       id="path16"
       style="fill:#ffffff;fill-opacity:1;fill-rule:nonzero;stroke:none" /><path
       d="m 65.9355,34.3055 22.625,0 0,93.875 -22.625,0 0,-93.875 z"
       id="path18"
       style="fill:#ffffff;fill-opacity:1;fill-rule:nonzero;stroke:none" /><path
       d="m 150.6,93.6805 -22.625,0 0,8.5155 c 0,5.369 -0.211,8.731 -0.633,10.083 -0.422,1.351 -1.439,2.026 -3.049,2.026 -1.382,0 -2.322,-0.582 -2.82,-1.742 -0.5,-1.162 -0.748,-4.142 -0.748,-8.941 l 0,-45.1091 c 0,-4.2191 0.246,-6.9961 0.742,-8.3301 0.494,-1.3363 1.483,-2.0023 2.967,-2.0023 1.598,0 2.691,0.7578 3.281,2.2777 0.59,1.5191 0.885,4.4785 0.885,8.8805 l 0,11.2168 -4.5,0 0,14.25 26.5,0 0,-50.5 -14.34,0 -2.098,6.7246 c -1.542,-2.8985 -3.478,-5.0781 -5.808,-6.5371 -2.332,-1.4571 -5.076,-2.1875 -8.234,-2.1875 -3.778,0 -7.323,0.9961 -10.635,2.9863 -3.315,1.9922 -5.828,4.4574 -7.543,7.3965 -1.715,2.9394 -2.7834,6.0238 -3.2072,9.2539 C 98.3109,55.1727 98.1,60.0168 98.1,66.4773 l 0,27.9063 c 0,8.9724 0.4434,15.4884 1.332,19.5504 0.889,4.061 3.457,7.784 7.707,11.168 4.25,3.386 9.734,5.078 16.457,5.078 6.606,0 12.092,-1.468 16.457,-4.404 4.365,-2.935 7.215,-6.422 8.547,-10.457 1.332,-4.037 2,-9.898 2,-17.5838 l 0,-4.0547"
       id="path20"
       style="fill:#ffffff;fill-opacity:1;fill-rule:nonzero;stroke:none" /><path
       d="m 212.34,128.18 0,-93.8745 -22.625,0 0,39.5 -6.625,0 0,-39.5 -22.625,0 0,93.8745 22.625,0 0,-33.4995 6.625,0 0,33.4995 22.625,0"
       id="path22"
       style="fill:#ffffff;fill-opacity:1;fill-rule:nonzero;stroke:none" /><path
       d="m 268.009,128.18 0,-18.75 -13.375,0 0,-75.1245 -22.625,0 0,75.1245 -13.25,0 0,18.75 49.25,0"
       id="path24"
       style="fill:#ffffff;fill-opacity:1;fill-rule:nonzero;stroke:none" /><path
       d="m 57.4945,249.281 12.9688,-93.875 -23.1563,0 -1.205,16.875 -8.2188,0 -1.2637,-16.875 -23.2812,0 11.4687,93.875 32.6875,0 z M 45.5707,188.906 c -1.1055,10.645 -2.2676,23.815 -3.4824,39.51 -2.3281,-18.016 -3.7852,-31.186 -4.3692,-39.51 l 7.8516,0"
       id="path26"
       style="fill:#ffffff;fill-opacity:1;fill-rule:nonzero;stroke:none" /><path
       d="m 74.4477,249.281 38.2503,0 0,-18.75 -15.6253,0 0,-17.75 14.0003,0 0,-17.875 -14.0003,0 0,-39.5 -22.625,0 0,93.875"
       id="path28"
       style="fill:#ffffff;fill-opacity:1;fill-rule:nonzero;stroke:none" /><path
       d="m 166.348,249.281 0,-18.75 -13.375,0 0,-75.125 -22.626,0 0,75.125 -13.25,0 0,18.75 49.251,0"
       id="path30"
       style="fill:#ffffff;fill-opacity:1;fill-rule:nonzero;stroke:none" /><path
       d="m 171.676,249.281 37.625,0 0,-18.75 -15,0 0,-17.75 14.125,0 0,-17.875 -14.125,0 0,-20.75 16.5,0 0,-18.75 -39.125,0 0,93.875"
       id="path32"
       style="fill:#ffffff;fill-opacity:1;fill-rule:nonzero;stroke:none" /><path
       d="m 217.383,249.281 16.002,0 c 10.668,0 17.885,-0.445 21.654,-1.336 3.77,-0.89 6.852,-3.166 9.248,-6.824 2.397,-3.66 3.596,-9.496 3.596,-17.51 0,-7.318 -0.842,-12.236 -2.524,-14.752 -1.681,-2.515 -4.996,-4.025 -9.943,-4.529 4.484,-1.197 7.49,-2.799 9.018,-4.807 1.527,-2.007 2.482,-3.849 2.869,-5.529 0.386,-1.68 0.58,-6.301 0.58,-13.865 l 0,-24.723 -21,0 0,31.137 c 0,5.016 -0.367,8.123 -1.098,9.318 -0.732,1.196 -2.658,1.795 -5.777,1.795 l 0,-42.25 -22.625,0 0,93.875 z m 22.625,-16.125 0,-20.875 c 2.541,0 4.322,0.377 5.344,1.131 1.019,0.754 1.531,3.199 1.531,7.336 l 0,5.16 c 0,2.977 -0.492,4.928 -1.475,5.856 -0.982,0.927 -2.783,1.392 -5.4,1.392"
       id="path34"
       style="fill:#ffffff;fill-opacity:1;fill-rule:nonzero;stroke:none" /></g></svg>