<svg
    version="1.1"
    id="YouTube_Icon"
    xmlns="http://www.w3.org/2000/svg"
    xmlns:xlink="http://www.w3.org/1999/xlink"
    x="0px"
    y="0px"
    viewBox="0 0 1024 721"
    enable-background="new 0 0 1024 721"
    xml:space="preserve">

    <!-- Red lozenge -->
    <g id="Lozenge">
        <g>
            <linearGradient
                id="SVGID_1_"
                gradientUnits="userSpaceOnUse"
                x1="512.5"
                y1="719.7"
                x2="512.5"
                y2="1.2"
                gradientTransform="matrix(1 0 0 -1 0 721)"
            >
                <stop offset="0" style="stop-color:#E52D27" />
                <stop offset="1" style="stop-color:#BF171D" />
            </linearGradient>

            <path
                fill="url(#SVGID_1_)"
                d="M1013,156.3c0,0-10-70.4-40.6-101.4C933.6,14.2,890,14,870.1,11.6C727.1,1.3,512.7,1.3,512.7,1.3    
                   h-0.4c0,0-214.4,0-357.4,10.3C135,14,91.4,14.2,52.6,54.9C22,85.9,12,156.3,12,156.3S1.8,238.9,1.8,321.6v77.5    
                   C1.8,481.8,12,564.4,12,564.4s10,70.4,40.6,101.4c38.9,40.7,89.9,39.4,112.6,43.7c81.7,7.8,347.3,10.3,347.3,10.3    
                   s214.6-0.3,357.6-10.7c20-2.4,63.5-2.6,102.3-43.3c30.6-31,40.6-101.4,40.6-101.4s10.2-82.7,10.2-165.3v-77.5    
                   C1023.2,238.9,1013,156.3,1013,156.3z"
            />
        </g>
    </g>

    <!-- Font Awesome icon, "trash-can.svg" -->
    <g id="trash-can" transform="translate(288,104) scale(1)">
        <path
            fill="#000000"
            d="M166.2-16c-13.3 0-25.3 8.3-30 20.8L120 48 24 48C10.7 48 0 58.7 0 72S10.7 96 24 96l400 0c13.3 0 24-10.7 24-24s-10.7-24-24-24l-96 0-16.2-43.2C307.1-7.7 295.2-16 281.8-16L166.2-16zM32 144l0 304c0 35.3 28.7 64 64 64l256 0c35.3 0 64-28.7 64-64l0-304-48 0 0 304c0 8.8-7.2 16-16 16L96 464c-8.8 0-16-7.2-16-16l0-304-48 0zm160 72c0-13.3-10.7-24-24-24s-24 10.7-24 24l0 176c0 13.3 10.7 24 24 24s24-10.7 24-24l0-176zm112 0c0-13.3-10.7-24-24-24s-24 10.7-24 24l0 176c0 13.3 10.7 24 24 24s24-10.7 24-24l0-176z"
        />
    </g>

</svg>
